<svg xmlns="http://www.w3.org/2000/svg" width="189" height="40" viewBox="0 0 189 40" fill="none">
  <path d="M151.953 39.1289C150.028 39.1289 148.895 37.9424 148.895 35.9385V4.50879C148.895 1.81934 150.556 0.18457 153.271 0.18457C155.618 0.18457 156.963 1.18652 157.965 3.71777L168.433 29.3467H168.644L179.085 3.71777C180.087 1.21289 181.458 0.18457 183.831 0.18457C186.547 0.18457 188.155 1.79297 188.155 4.50879V35.9385C188.155 37.9424 187.021 39.1289 185.097 39.1289C183.172 39.1289 182.038 37.9424 182.038 35.9385V11.6807H181.854L171.755 36.1494C171.096 37.7314 170.12 38.4434 168.538 38.4434C166.982 38.4434 165.954 37.7314 165.321 36.1758L155.223 11.6807H155.038V35.9385C155.038 37.9424 153.878 39.1289 151.953 39.1289Z" fill="#F2F2F2"/>
  <path d="M121.765 38.6807C119.655 38.6807 118.363 37.3623 118.363 35.1475V4.16602C118.363 1.95117 119.655 0.632812 121.765 0.632812H140.301C142.173 0.632812 143.412 1.74023 143.412 3.50684C143.412 5.27344 142.173 6.38086 140.301 6.38086H125.166V16.6641H139.51C141.25 16.6641 142.437 17.6924 142.437 19.3535C142.437 21.0146 141.276 22.0693 139.51 22.0693H125.166V32.9326H140.301C142.173 32.9326 143.412 34.04 143.412 35.8066C143.412 37.5732 142.173 38.6807 140.301 38.6807H121.765Z" fill="#F2F2F2"/>
  <path d="M96.2139 39.3135C85.1133 39.3135 78.2051 31.7725 78.2051 19.5117C78.2051 7.43555 85.0869 0 96.082 0C103.254 0 108.976 3.48047 111.085 8.38477C111.48 9.28125 111.586 9.9668 111.586 10.6523C111.586 12.4453 110.399 13.6318 108.58 13.6318C107.104 13.6318 106.075 12.9727 105.231 11.4434C103.333 7.67285 100.248 5.77441 96.1084 5.77441C89.2529 5.77441 85.166 10.8633 85.166 19.4326C85.166 28.1865 89.4375 33.5391 96.293 33.5391C102.041 33.5391 106.022 29.9004 106.128 24.5742L106.154 23.9414H99.4043C97.7168 23.9414 96.5566 22.9395 96.5566 21.3311C96.5566 19.7227 97.7168 18.7471 99.4043 18.7471H109.424C111.533 18.7471 112.799 20.0654 112.799 22.2803V23.0713C112.799 32.959 106.734 39.3135 96.2139 39.3135Z" fill="#F2F2F2"/>
  <path d="M56.0303 39.3135C44.9297 39.3135 37.9688 31.7725 37.9688 19.6699C37.9688 7.56738 44.9297 0 56.0303 0C67.1045 0 74.0654 7.56738 74.0654 19.6699C74.0654 31.7725 67.1045 39.3135 56.0303 39.3135ZM56.0303 33.5127C62.8066 33.5127 67.1309 28.1338 67.1309 19.6699C67.1309 11.1797 62.8066 5.80078 56.0303 5.80078C49.2275 5.80078 44.9297 11.1797 44.9297 19.6699C44.9297 28.1338 49.2275 33.5127 56.0303 33.5127Z" fill="#F2F2F2"/>
  <path d="M17.7715 39.3135C6.77637 39.3135 0 31.8516 0 19.6436C0 7.51465 6.88184 0 17.6396 0C24.6797 0 30.2432 3.2959 32.748 8.85938C33.1699 9.72949 33.3809 10.626 33.3809 11.417C33.3809 13.2363 32.1943 14.3965 30.375 14.3965C28.8193 14.3965 27.791 13.6582 27.0527 11.9971C25.2861 7.91016 21.832 5.77441 17.6924 5.77441C11.1533 5.77441 6.96094 11.1533 6.96094 19.6436C6.96094 28.1865 11.127 33.5391 17.7188 33.5391C22.0693 33.5391 25.418 31.6406 27.1582 27.6328C27.8438 26.0771 28.7139 25.4443 30.1904 25.4443C32.0625 25.4443 33.3545 26.6836 33.3545 28.4766C33.3545 29.3467 33.1436 30.1377 32.7217 31.0342C30.2959 36.2021 24.8906 39.3135 17.7715 39.3135Z" fill="#F18D2E"/>
</svg>